<svg id="Flat" height="512" viewBox="0 0 512 512" width="512" xmlns="http://www.w3.org/2000/svg"><path d="m392 24-48 208h-32l48-208z" fill="#dadcde"/><path d="m288 24-46.311 23.155a32 32 0 0 0 -17.689 28.622v12.223h64z" fill="#b1bd70"/><path d="m302.015 74.248-96 12a16 16 0 0 0 -14.015 15.876v17.876h128v-29.876a16 16 0 0 0 -17.985-15.876z" fill="#8f9e46"/><path d="m318.408 105.759-128 12.8a16 16 0 0 0 -14.408 15.921v17.52h160v-30.32a16 16 0 0 0 -17.592-15.921z" fill="#b1bd70"/><path d="m334.671 137.444-160 13.333a16 16 0 0 0 -14.671 15.945v65.278h192v-78.611a16 16 0 0 0 -17.329-15.945z" fill="#8f9e46"/><path d="m160 264h192a0 0 0 0 1 0 0v48a32 32 0 0 1 -32 32h-128a32 32 0 0 1 -32-32v-48a0 0 0 0 1 0 0z" fill="#b37a60"/><path d="m312 376h-112a16 16 0 0 1 -16-16 16 16 0 0 1 16-16h112a16 16 0 0 1 16 16 16 16 0 0 1 -16 16z" fill="#d49073"/><path d="m312 376-16 112h-80l-16-112z" fill="#b37a60"/><g fill="#d49073"><path d="m224 320a8 8 0 0 1 -8-8v-16a8 8 0 0 1 16 0v16a8 8 0 0 1 -8 8z"/><path d="m256 320a8 8 0 0 1 -8-8v-16a8 8 0 0 1 16 0v16a8 8 0 0 1 -8 8z"/><path d="m288 320a8 8 0 0 1 -8-8v-16a8 8 0 0 1 16 0v16a8 8 0 0 1 -8 8z"/><path d="m368 264h-224a16 16 0 0 1 -16-16 16 16 0 0 1 16-16h224a16 16 0 0 1 16 16 16 16 0 0 1 -16 16z"/><path d="m256 488h-16.08l-15.84-110.87a8.708 8.708 0 0 1 -.08-1.13h16.08l15.84 110.87a8.708 8.708 0 0 1 .08 1.13z"/><path d="m288 488h-16.08l-15.84-110.87a8.708 8.708 0 0 1 -.08-1.13h16.08l15.84 110.87a8.708 8.708 0 0 1 .08 1.13z"/></g><path d="m169.373 49.373h45.255v45.255h-45.255z" fill="#734b39" transform="matrix(.707 -.707 .707 .707 5.324 156.853)"/><path d="m326.702 174.702h50.596v50.596h-50.596z" fill="#734b39" transform="matrix(.949 -.316 .316 .949 -45.182 121.576)"/><circle cx="288" cy="200" fill="#e1e3e6" r="32"/><path d="m198.702 174.702h50.596v50.596h-50.596z" fill="#734b39" transform="matrix(.949 -.316 .316 .949 -51.751 81.098)"/><circle cx="160" cy="200" fill="#e1e3e6" r="32"/></svg>