<svg id="Flat" height="512" viewBox="0 0 512 512" width="512" xmlns="http://www.w3.org/2000/svg"><circle cx="208" cy="184" fill="#ffb632" r="64"/><circle cx="304" cy="184" fill="#ff9494" r="64"/><path d="m160 264h192v32h-192z" fill="#d49073"/><path d="m352 264h-192a16 16 0 0 1 -16-16 16 16 0 0 1 16-16h192a16 16 0 0 1 16 16 16 16 0 0 1 -16 16z" fill="#b37a60"/><path d="m336 296-14.26 42.79v.01l-7.84 23.5-11.53 34.57v.01l-8.04 24.12-12.94 38.82-8.19 24.59-1.2 3.59h-32l-64-192z" fill="#b37a60"/><g fill="#d49073"><path d="m281.39 459.82-8.19 24.59a7.682 7.682 0 0 1 -.76-1.58l-64-184.2a8.079 8.079 0 0 1 -.45-2.63h16.48z"/><path d="m302.37 396.87v.01l-8.04 24.12-45.82-122.19a7.957 7.957 0 0 1 -.51-2.81h16.54z"/><path d="m321.74 338.79v.01l-7.84 23.5-25.33-63.33a7.991 7.991 0 0 1 -.57-2.97h16.62z"/></g><path d="m269.99 168h-13.99a15.979 15.979 0 0 0 -16 16 16 16 0 1 1 -32 0 16 16 0 1 0 -32 0 16 16 0 1 1 -32 0 64.013 64.013 0 0 1 125.99-16z" fill="#5e3d30"/><path d="m365.99 168h-13.99a15.979 15.979 0 0 0 -16 16 16 16 0 1 1 -32 0 16 16 0 1 0 -32 0 16 16 0 1 1 -32 0 64.013 64.013 0 0 1 125.99-16z" fill="#734b39"/><circle cx="256" cy="88" fill="#f7cca9" r="64"/><path d="m317.99 72h-13.99a15.979 15.979 0 0 0 -16 16 16 16 0 1 1 -32 0 16 16 0 1 0 -32 0 16 16 0 1 1 -32 0 64.013 64.013 0 0 1 125.99-16z" fill="#734b39"/><path d="m288.006 40a8 8 0 0 1 -3.584-15.157l16-8a8 8 0 1 1 7.156 14.31l-16 8a7.959 7.959 0 0 1 -3.572.847z" fill="#ffb632"/><path d="m223.994 40a7.959 7.959 0 0 1 -3.572-.847l-16-8a8 8 0 0 1 7.156-14.31l16 8a8 8 0 0 1 -3.584 15.157z" fill="#ff9494"/><path d="m263.994 64a7.959 7.959 0 0 1 -3.572-.847l-16-8a8 8 0 0 1 7.156-14.31l16 8a8 8 0 0 1 -3.584 15.157z" fill="#3397e8"/><path d="m199.994 80a7.959 7.959 0 0 1 -3.572-.847l-16-8a8 8 0 1 1 7.156-14.31l16 8a8 8 0 0 1 -3.584 15.157z" fill="#ffb632"/><path d="m312.006 80a8 8 0 0 1 -3.584-15.157l16-8a8 8 0 1 1 7.156 14.31l-16 8a7.959 7.959 0 0 1 -3.572.847z" fill="#ff9494"/></svg>